<?xml version="1.0" encoding="UTF-8" standalone="no"?>
<svg
   xmlns:dc="http://purl.org/dc/elements/1.1/"
   xmlns:cc="http://creativecommons.org/ns#"
   xmlns:rdf="http://www.w3.org/1999/02/22-rdf-syntax-ns#"
   xmlns:svg="http://www.w3.org/2000/svg"
   xmlns="http://www.w3.org/2000/svg"
   id="svg34"
   version="1.1"
   viewBox="0 0 210 217"
   height="51mm"
   width="30mm">
  <metadata
     id="metadata40">
    <rdf:RDF>
      <cc:Work
         rdf:about="">
        <dc:format>image/svg+xml</dc:format>
        <dc:type
           rdf:resource="http://purl.org/dc/dcmitype/StillImage" />
        <dc:title></dc:title>
      </cc:Work>
    </rdf:RDF>
  </metadata>
  <defs
     id="defs38" />
  <g
     style="stroke:#000000"
     id="g32"><path
   style="fill:none"
   id="path2"
   d="m 41.16,216.318 c 18.538,0.215 37.059,-1.021 55.596,-0.806 2.145,-12.403 7.116,-24.73 5.079,-37.505 12.968,-3.623 4.168,16.096 6.67,23.207 -1.355,6.416 -1.145,17.128 8.107,14.836 h 51.502 c 4.213,-33.333 12.614,-67.704 3.084,-100.936 -5.93,-21.111 -26.24,-35.002 -46.619,-40.165 -22.664,-5.73 -47.488,-0.13 -65.784,14.358 -10.549,7.375 -20.438,17.29 -22.536,30.518 -8.076,31.405 0.101,63.62 4.858,94.804 l 0.044,1.689 z" />
{3}
			strokeLinecap=&quot;round&quot;
			strokeLinejoin=&quot;round&quot;
		/&gt;
		<path
   style="fill:none"
   id="path4"
   d="M 32.226,138.88 C 19.736,143.53 2.816,134.622 3.887,120.167 2.336,97.27 15.63,74.505 34.83,62.557 c 13.984,-7.94 32.099,-6.577 44.946,3.01 4.009,2.632 7.713,5.708 11.177,9.019" />
{3}
			strokeLinecap=&quot;round&quot;
			strokeLinejoin=&quot;round&quot;
		/&gt;
		<path
   style="fill:none"
   id="path6"
   d="m 174.905,138.942 c 12.49,4.65 29.41,-4.257 28.339,-18.712 1.551,-22.897 -11.743,-45.663 -30.942,-57.61 -13.984,-7.94 -32.099,-6.577 -44.946,3.01 -4.009,2.632 -7.713,5.707 -11.177,9.019" />
{3}
		/&gt;
		<path
   style="fill:none"
   id="path8"
   d="m 90.952,74.586 c -6.803,-14.679 -2.528,-36.322 13.685,-42.598 14.672,-4.11 7.102,-24.975 17.092,-30.306 16.204,-1.38 13.526,17.958 8.614,27.353 -6.79,10.087 -24.638,14.865 -20.764,30.057 0.972,5.608 3.555,10.8 6.6,15.557" />
{3}
			strokeLinejoin=&quot;round&quot;
		/&gt;
		<path
   style="fill:none"
   id="path10"
   d="m 117.72,1.746 c -0.98,8.878 9.944,12.51 16.9,10.103" />
{3}
		/&gt;
		<path
   style="fill:none"
   id="path12"
   d="m 105.073,123.261 c 5.368,7.929 13.51,18.699 7.573,28.31 -2.913,5.856 -6.72,11.207 -10.82,16.284" />
{6}
			strokeLinecap=&quot;round&quot;
			strokeLinejoin=&quot;round&quot;
		/&gt;
		<path
   style="fill:none"
   id="path14"
   d="m 106.64,173.702 c -2.931,-3.353 -5.665,-6.21 -4.7,0.188 l -0.105,4.117" />
{2}
			strokeLinecap=&quot;round&quot;
		/&gt;
		<path
   style="fill:none"
   id="path16"
   d="m 101.827,167.855 c -1.96,1.77 -3.918,3.542 -5.877,5.313" />
{1.6}
			strokeLinecap=&quot;round&quot;
		/&gt;
		<path
   style="fill:none"
   id="path18"
   d="m 101.827,167.855 c -3.81,-1.38 -5.135,0.128 0,0 z" />
{0.265}
		/&gt;
		<path
   style="fill:none"
   id="path20"
   d="m 94.613,167.02 c 5.327,0.57 8.946,1.057 14.7,1.871" />
{2}
			strokeLinecap=&quot;round&quot;
		/&gt;
		<path
   style="fill:#003178"
   id="path22"
   d="M 22.37,138.26 C 11.158,137.517 3.722,126.676 5.37,115.873 5.825,94.961 18.195,74.855 35.802,63.913 c 13.749,-7.737 31.396,-5.992 43.786,3.576 4.955,3.207 11.757,7.351 1.243,7.908 -15.92,6.216 -30.857,16.442 -41.01,30.326 -5.155,9.696 -6.958,20.881 -8.112,31.711 -3.05,0.735 -6.2,1.186 -9.34,0.826 z" />
{6.061}
			strokeLinecap=&quot;round&quot;
			strokeLinejoin=&quot;round&quot;
		/&gt;
		<path
   style="fill:#003178"
   id="path24"
   d="m 42.733,213.85 c -5.28,-32.47 -13.532,-66.469 -3.387,-98.887 4.689,-14.727 18.876,-23.427 31.215,-31.306 13.396,-7.599 29.91,-10.842 44.857,-8.402 11.741,0.74 24.257,5.883 34.06,13.126 13.704,8.627 21.012,24.137 22.84,39.807 4.599,28.837 -1.998,57.707 -5.642,86.248 -18.372,-0.076 -36.752,0.205 -55.118,-0.267 -3.714,-8.808 -0.779,-19.958 -0.97,-29.624 2.345,-6.816 -5.002,-8.476 -7.452,-10.177 -2.013,-6.159 8.012,5.081 2.94,-2.83 -3.146,-3.256 9.445,-1.4 0.597,-4.755 4.93,-7.827 13.23,-16.229 10.683,-26.186 -2.613,-6.313 -6.37,-21.86 -14.774,-19.193 0.142,8.486 10.181,15.074 9.126,24.603 -2.95,7.244 -7.516,14.207 -12.77,20.071 -8.419,-0.917 -4.036,2.647 -0.604,3.474 -5.798,4.648 -1.387,5.29 2.222,1.133 -0.282,8.598 0.831,17.522 -1.38,26.075 -3.122,5.089 0.59,18.789 -7.967,17.145 -16.162,0.018 -32.313,0.872 -48.476,0.798 v -0.595 z" />
{6.061}
			strokeLinecap=&quot;round&quot;
			strokeLinejoin=&quot;round&quot;
		/&gt;
		<path
   style="fill:#003178"
   id="path26"
   d="M 91.538,72.11 C 87.586,59.648 88.969,43.6 99.24,34.544 c 8.396,-3.846 17.762,-9.579 18.402,-19.911 -0.892,-11.09 8.412,3.467 14.738,-0.446 -1.784,7.712 -0.88,20.478 -10.997,25.031 -10.2,5.908 -11.887,19.008 -8.505,29.365 0.648,2.626 3.917,8.794 -0.656,3.204 11.436,5.467 -8.385,1.144 -12.021,1.283 -2.396,-1.08 -7.116,0.924 -8.664,-0.96 z" />
{6.085}
			strokeLinecap=&quot;round&quot;
			strokeLinejoin=&quot;round&quot;
		/&gt;
		<path
   style="fill:#003178"
   id="path28"
   d="m 178.572,138.225 c -4.51,-5.443 -2.602,-16.158 -5.796,-23.372 -6.386,-23.044 -29.11,-37.5 -51.35,-42.431 10.508,-9.916 25.705,-16.125 40.18,-12.165 18.766,4.873 31.58,22.432 37.657,39.985 2.63,9.515 4.338,20.652 -0.233,29.782 -4.324,6.63 -12.895,9.207 -20.458,8.2 z" />
{6.061}
			strokeLinecap=&quot;round&quot;
			strokeLinejoin=&quot;round&quot;
		/&gt;
		<path
   style="fill:#1a1a1a"
   id="path30"
   strokeLinejoin="round"
   strokeLinecap="round"
   d="m 126.019,10.238 c -8.745,-1.586 -5.638,-10.742 2.16,-5.64 5.031,3.74 6.171,8.248 -2.16,5.64 z" />
</g>
</svg>
